<?xml version="1.0" standalone="no"?>
<!DOCTYPE svg PUBLIC "-//W3C//DTD SVG 1.1//EN" "http://www.w3.org/Graphics/SVG/1.1/DTD/svg11.dtd" >
<svg xmlns="http://www.w3.org/2000/svg" xmlns:xlink="http://www.w3.org/1999/xlink" version="1.1">
<metadata></metadata>
<defs>
<font id="basquebold" horiz-adv-x="1282" >
<font-face units-per-em="2048" ascent="1638" descent="-410" />
<missing-glyph horiz-adv-x="395" />
<glyph horiz-adv-x="0" />
<glyph unicode="&#xd;" horiz-adv-x="395" />
<glyph unicode=" "  horiz-adv-x="395" />
<glyph unicode="&#x09;" horiz-adv-x="395" />
<glyph unicode="&#xa0;" horiz-adv-x="395" />
<glyph unicode="!" horiz-adv-x="289" d="M70 45q12 90 90 90q84 0 84 -90q0 -35 -21 -57q-26 -33 -67 -33q-43 0 -68 31q-12 15 -15 29t-3 30zM70 326v1138h174v-1138h-174z" />
<glyph unicode="&#x22;" horiz-adv-x="481" d="M61 983v502h175v-502h-175zM244 983v502h172v-502h-172z" />
<glyph unicode="#" horiz-adv-x="1206" d="M61 408v200h240l31 203h-217v201h245l74 432h205l-64 -436h183l63 436h205l-63 -432h192v-205h-221l-29 -203h195v-201h-230l-61 -460h-205l58 465h-187l-65 -465h-201l65 465h-213zM514 604h191l28 203h-188z" />
<glyph unicode="$" horiz-adv-x="1184" d="M80 -41v172h407v694h-49q-36 0 -86 11q-59 13 -88 28q-184 94 -184 299q0 72 29.5 136t80.5 106q101 84 246 84h51v113h164v-113h396v-176h-392v-318h-26q134 0 253.5 -73t186.5 -195q72 -132 72 -266q0 -65 -21 -131q-23 -73 -57 -125q-73 -112 -189.5 -178t-214.5 -66 v-125h-172v123h-407zM250 1145q0 -40 29 -76q60 -74 163 -74h45v318h-55q-102 0 -158 -86q-24 -37 -24 -82zM647 131q52 0 109 25t98 67q111 114 111 260q0 89 -60 189q-35 58 -82 92q-20 14 -59 37q-26 12 -80 31q-18 4 -37 4v-705z" />
<glyph unicode="%" horiz-adv-x="1214" d="M31 -37l927 1522h209l-936 -1522h-200zM66 1208q0 123 85 207t207 84q167 0 252 -145q41 -70 41 -144t-39 -149q-34 -64 -108 -109q-65 -39 -146 -39q-120 0 -206 86t-86 209zM244 1206q0 -48 34.5 -83.5t83.5 -35.5q50 0 78 35q35 35 35 86q0 49 -32 84t-81 35 q-50 0 -83 -33q-18 -18 -25 -39q-10 -22 -10 -49zM555 244q0 81 37 146.5t108 111.5q72 37 148 37q82 0 145 -39q148 -92 148 -254q0 -123 -85 -209t-208 -86q-122 0 -207.5 85.5t-85.5 207.5zM733 248q0 -58 33 -90q36 -35 88 -35q46 0 78.5 39t32.5 86q0 45 -37 84 q-33 35 -76 35q-51 0 -85 -34t-34 -85z" />
<glyph unicode="&#x26;" horiz-adv-x="1163" d="M70 469q0 277 223 416q-44 27 -84 84q-64 92 -64 200q0 81 48 156q44 69 119 110.5t157 41.5h621v-168h-617q-160 0 -160 -162q0 -40 21 -80t57 -63q33 -21 78 -21h338v-168h-170q-240 0 -340 -170q-47 -80 -47 -184q0 -81 41.5 -159t108.5 -124.5t139 -46.5h387v848h166 v-1020h-519q-107 0 -204 41q-101 42 -160 106q-139 149 -139 363z" />
<glyph unicode="'" horiz-adv-x="346" d="M61 930v155q25 11 35 17q33 25 33 65v54h-68v264h232v-291q0 -92 -49 -160q-53 -73 -183 -104z" />
<glyph unicode="(" horiz-adv-x="655" d="M53 635q0 162 41 319q37 143 113 269q49 82 86 129q50 64 123 137h235q-226 -214 -329 -422t-103 -440q0 -266 86.5 -466t333.5 -429h-244q-177 200 -260 405q-30 74 -47 154q-35 162 -35 344z" />
<glyph unicode=")" horiz-adv-x="655" d="M6 1481h236q95 -97 170 -205q54 -79 104 -193q43 -100 64 -209q24 -126 24 -245q0 -283 -88 -500q-15 -39 -45 -109q-17 -37 -57 -96q-62 -92 -158 -200h-242q186 171 265 296q82 130 118 269q39 150 39 332q0 285 -182 579q-47 76 -92 127q-48 54 -156 154z" />
<glyph unicode="*" horiz-adv-x="819" d="M35 692l219 318h-184v172h178l-213 313h194l183 -254l182 254h192l-206 -309h165v-174h-178l205 -307h-190l-174 241l-181 -254h-192z" />
<glyph unicode="+" horiz-adv-x="1262" d="M70 420v213h454v467h205v-467h457v-213h-461v-465h-201v465h-454z" />
<glyph unicode="," horiz-adv-x="291" d="M66 135h170v-545h-170v545z" />
<glyph unicode="-" horiz-adv-x="606" d="M61 633v168h482v-168h-482z" />
<glyph unicode="." horiz-adv-x="291" d="M66 45q12 78 86 78q51 0 73 -43l6 -21q5 -8 5 -26q0 -49 -41 -68q-15 -10 -43 -10q-60 0 -74 43q-8 18 -8 29q-2 8 -4 18z" />
<glyph unicode="/" horiz-adv-x="956" d="M49 -41l670 1514h196l-686 -1514h-180z" />
<glyph unicode="0" horiz-adv-x="1661" d="M45 725q0 211 104.5 388t286.5 284q174 102 389 102q219 0 394 -100q179 -102 285 -285t106 -389q0 -207 -105 -384.5t-285.5 -283.5t-394.5 -106q-321 0 -546 227q-83 84 -129 160q-105 175 -105 387zM215 717q0 -160 83 -301t222 -223q143 -84 305 -84q170 0 305 79 q144 85 226 226.5t82 302.5q0 167 -80.5 306.5t-224.5 225.5q-138 82 -308 82q-168 0 -307 -82t-221 -227t-82 -305z" />
<glyph unicode="1" horiz-adv-x="303" d="M72 -33v1510h176v-1510h-176z" />
<glyph unicode="2" d="M53 473q0 213 156 369q46 46 106 80q122 69 258 69h320q67 0 116.5 42.5t49.5 113.5q-11 96 -93 133q-57 25 -171 25h-637v172h637q126 0 200 -23q90 -20 158 -94q76 -84 76 -203q0 -148 -94 -244t-242 -96h-342q-94 0 -167 -47.5t-117 -131.5t-44 -173 q0 -95 50.5 -174.5t132.5 -120.5q87 -43 212 -43h601v-168h-601q-147 0 -277 64q-135 67 -211.5 185.5t-76.5 264.5z" />
<glyph unicode="3" horiz-adv-x="1174" d="M57 1305v168h645q89 0 164 -46q79 -48 119 -116q45 -76 45 -166q0 -168 -121 -260q77 -61 129 -144q70 -113 70 -256q0 -135 -64.5 -257t-178 -193.5t-247.5 -71.5h-557v164h549q89 0 162 47t123 135q45 79 45 174q0 198 -164 295q-73 43 -180 43h-530v170h598 q198 0 198 156q0 80 -57 115q-70 43 -172 43h-576z" />
<glyph unicode="4" horiz-adv-x="1063" d="M66 811v154l784 495h147v-1501h-166v852h-765zM410 979h419v260z" />
<glyph unicode="5" horiz-adv-x="1114" d="M61 -45v149h459q221 0 322 158q57 89 57 189q0 205 -180 305q-85 47 -180 47h-469v657h915v-176h-745v-317h292q324 0 467 -250q66 -115 66 -260q0 -142 -69 -258q-70 -119 -196 -181.5t-280 -62.5h-459z" />
<glyph unicode="6" horiz-adv-x="1145" d="M53 481q0 104 29 181q30 81 84 155l481 664h203l-340 -484q18 4 39 4h29q113 0 200 -40q138 -64 219.5 -192t81.5 -288q0 -286 -245 -444q-121 -78 -256 -78q-141 0 -261.5 71t-192 192t-71.5 259zM219 492q0 -85 41 -173q60 -129 205 -176q47 -16 100 -16q88 0 174 47 q176 97 176 295q0 97 -43 176q-40 74 -127 131q-75 49 -167 49q-122 0 -197.5 -51.5t-118.5 -135t-43 -146.5z" />
<glyph unicode="7" horiz-adv-x="1114" d="M61 1292v176h1002v-170l-590 -1339h-180l581 1333h-813z" />
<glyph unicode="8" horiz-adv-x="1188" d="M66 444l4 19q0 151 84 283q52 82 149 159q19 15 47 33q-84 92 -84 233q0 169 113 261q108 88 233 88q94 0 181 -49.5t129.5 -132t42.5 -158.5q0 -90 -37 -166q-23 -46 -56 -82q107 -64 172 -164q23 -36 50 -90q43 -122 43 -211q0 -139 -74 -268q-68 -119 -191.5 -194 t-265.5 -75q-136 0 -264 72q-276 156 -276 442zM244 455q0 -208 182 -308q84 -47 176 -47q95 0 181 50.5t137 136.5q49 82 49 182q0 94 -49 178q-41 71 -134 129q-78 49 -174 49q-209 0 -317 -184q-51 -87 -51 -186zM444 1153q5 -35 8 -47t17 -31q24 -33 61 -59 q60 -19 91 -19q36 0 75 25q36 24 61 67t25 89q0 64 -51 116q-46 47 -117 47q-75 0 -122.5 -55.5t-47.5 -132.5z" />
<glyph unicode="9" horiz-adv-x="1200" d="M70 938q0 311 258 469q128 78 268 78t269.5 -71.5t203.5 -190.5q76 -122 76 -267q0 -140 -84 -284q-18 -31 -68 -97l-469 -620h-211l351 469l-68 -4q-132 -8 -266 69q-122 70 -191 189t-69 260zM248 954q0 -88 45 -174q43 -82 119 -133q82 -55 170 -57q105 -3 196 53 q86 53 133 133q50 86 50 176q0 66 -27 133q-53 131 -182 195q-66 33 -148 33q-201 0 -307 -176q-49 -81 -49 -183z" />
<glyph unicode=":" horiz-adv-x="295" d="M55 764q11 51 51 86h13l20 2q39 0 65.5 -26.5t26.5 -65.5q0 -45 -43 -70q-2 -2 -4 -2q-12 -8 -34 -12q-29 4 -66 18zM63 33q13 71 54 94q5 0 8 2l22 2q31 0 62 -25q31 -30 31 -63q0 -68 -66 -86l-22 -2q-52 0 -80 55q0 13 -9 23z" />
<glyph unicode=";" horiz-adv-x="285" d="M57 764q13 88 86 88q58 0 78 -39l6 -20l4 -27q0 -49 -32 -70q-11 -10 -35 -10q0 6 -86 6q2 4 4 10q-7 17 -19 46zM66 115h161v-523h-161v523z" />
<glyph unicode="&#x3c;" horiz-adv-x="1210" d="M66 451v161l1095 504v-229l-788 -352l788 -379v-226z" />
<glyph unicode="=" horiz-adv-x="1245" d="M70 223v201h1134v-201h-1134zM70 618v203h1134v-203h-1134z" />
<glyph unicode="&#x3e;" horiz-adv-x="1196" d="M61 -70v228l791 377l-791 356v225l1098 -502v-163z" />
<glyph unicode="?" horiz-adv-x="1159" d="M61 1288v172h689q91 0 169 -40.5t129.5 -115.5t51.5 -165q0 -98 -53.5 -174.5t-137.5 -116.5q-87 -41 -176 -41h-123v-481h-170v653h301q76 0 125 43t49 115q0 67 -53 106q-20 14 -41 25q-40 20 -92 20h-668zM444 37q0 12 5 29q2 15 20 34q26 27 68 27q38 0 61 -29 q20 -20 20 -57q0 -94 -86 -94q-43 0 -69 33q-19 30 -19 57z" />
<glyph unicode="@" horiz-adv-x="1626" d="M53 707q0 329 217 561q226 241 541 241q174 0 335 -68q168 -70 279 -196q35 -40 74 -115q64 -124 64 -272q0 -105 -35 -229q-33 -116 -84 -189q-178 -254 -371 -254q-125 13 -190 90q-103 -81 -217 -81q-46 0 -154 38q-178 81 -178 310q0 138 76 309q64 144 179 241 q130 111 273 111q84 0 152 -41q33 -16 63 -47l10 35h232l-252 -748l2 -20l4 -4q35 6 94 43q67 52 101 96q43 56 73 158q29 98 29 203q0 58 -8 96q-6 31 -35 84q-46 85 -119 149q-45 39 -80 58q-42 23 -92 41q-94 34 -188 34q-268 0 -440 -170q-181 -179 -181 -477 q0 -229 181.5 -411.5t420.5 -182.5q216 0 388 144q50 42 98 106h211q-141 -209 -313.5 -312.5t-383.5 -103.5q-69 0 -150 17t-149 47q-140 61 -247 172q-61 63 -95 115q-38 57 -71 131q-64 145 -64 291zM569 563q0 -106 76 -145l25 -4l24 -6q119 0 228 251q55 127 55 207 q0 82 -51 121q-27 17 -64 17q-68 0 -146 -87q-62 -70 -98 -149q-9 -19 -12 -31q-11 -28 -31 -110q-6 -24 -6 -64z" />
<glyph unicode="A" d="M66 -41v936q0 376 286 545q135 80 295 80q115 0 225 -45q102 -42 184 -126t124 -186q45 -109 45 -233v-975h-170v883h-824v-879h-165zM248 1008h803q-36 195 -209 297q-90 53 -197 53q-97 0 -184 -51q-184 -108 -213 -299z" />
<glyph unicode="B" horiz-adv-x="1300" d="M94 -45v1536h674q81 0 121 -6q37 -5 94 -29q98 -40 145 -110q58 -86 58 -177q0 -168 -125 -260q207 -150 207 -417q0 -236 -162 -388q-82 -77 -184 -114q-97 -35 -193 -35h-635zM266 135h457q96 0 185 49.5t138.5 131t49.5 173.5t-49 173q-104 172 -302 172h-479v-699z M270 1012h480q130 0 198 39q60 34 60 114q0 156 -240 156h-498v-309z" />
<glyph unicode="C" horiz-adv-x="1290" d="M76 721q0 330 229 553q223 217 580 217h356v-174h-375q-219 0 -411 -150q-38 -29 -78 -82q-43 -56 -68 -108q-59 -122 -59 -275q0 -116 43 -217q45 -105 126.5 -185.5t207.5 -129.5q120 -47 280 -47h334v-168h-418q-207 0 -377.5 103t-267.5 276q-102 182 -102 387z" />
<glyph unicode="D" d="M86 -41v1532h350q370 0 592 -238q111 -118 162 -252q53 -138 53 -284q0 -206 -99 -381.5t-271 -276t-379 -100.5h-408zM256 115h225q257 0 426 180q77 82 121 192q41 103 41 224q0 347 -309 526q-145 84 -309 84h-195v-1206z" />
<glyph unicode="E" horiz-adv-x="1274" d="M86 -45v1540h1147v-178h-959v-316h959v-184h-959v-686h959v-176h-1147z" />
<glyph unicode="F" horiz-adv-x="1290" d="M94 -45v1526h1182v-185h-997v-301h985v-170h-985v-870h-185z" />
<glyph unicode="G" horiz-adv-x="1311" d="M80 729q0 80 14 152q15 77 45 149q121 290 430 406q148 55 324 55h379v-170h-400q-252 0 -432 -176q-86 -84 -135 -197t-49 -225q0 -156 81 -293t218 -213q148 -82 365 -82h167v705h-274v178h451v-1063h-324q-209 0 -365 57q-69 25 -143 72q-84 53 -129 96 q-102 97 -164 250q-59 145 -59 299z" />
<glyph unicode="H" horiz-adv-x="1286" d="M66 -45v1526h165v-486h828v486h166v-1522h-162v858h-827v-862h-170z" />
<glyph unicode="I" horiz-adv-x="428" d="M133 -41v1518h172v-1518h-172z" />
<glyph unicode="J" horiz-adv-x="1262" d="M2 498l2 6v43h176q0 -259 199 -387q92 -60 188 -60l19 4q93 0 188 56q88 52 137.5 132t49.5 177v1016h180v-1020q0 -141 -78 -266q-119 -190 -336 -252q-73 -21 -141 -21q-149 0 -287 80q-69 40 -119 88q-56 54 -96 119q-82 134 -82 285z" />
<glyph unicode="K" horiz-adv-x="1296" d="M106 -41v1522h179v-394l755 394h174l21 -76l-647 -361l725 -1093h-203l-682 1012l-149 -78v-926h-173z" />
<glyph unicode="L" horiz-adv-x="1270" d="M98 -41v1536h158v-1368h991v-168h-1149z" />
<glyph unicode="M" horiz-adv-x="1526" d="M61 -41v1522h142l569 -461l537 448h153v-1509h-176v1266l-522 -426l-520 411v-1251h-183z" />
<glyph unicode="N" horiz-adv-x="1280" d="M66 -41v1514h133l848 -461v448h174v-1501h-170v852l-820 438v-1290h-165z" />
<glyph unicode="O" horiz-adv-x="1665" d="M57 721q0 213 105.5 396t281 287.5t385.5 104.5q160 0 304 -61q292 -124 413 -422q64 -158 64 -305q0 -211 -103.5 -390.5t-286 -288t-391.5 -108.5q-208 0 -386 105.5t-282 289t-104 392.5zM227 721q0 -162 82.5 -308.5t220.5 -230.5q135 -82 299 -82t305 85 q138 83 222 227q82 141 82 309q0 169 -82 311q-45 78 -95.5 130.5t-127.5 97.5q-139 81 -304 81q-162 0 -299 -81q-66 -39 -122 -97q-58 -61 -99 -131q-82 -142 -82 -311z" />
<glyph unicode="P" horiz-adv-x="1266" d="M102 -45v1526h809q87 0 166 -37q44 -21 70 -43q68 -58 96 -150q12 -39 12 -94q0 -114 -46 -184.5t-136 -108.5q-83 -35 -170 -35h-637v-874h-164zM266 997h623q77 0 137 43q51 37 51 107q0 158 -192 158h-619v-308z" />
<glyph unicode="Q" horiz-adv-x="1694" d="M66 717q0 214 101 392t286 288q182 108 395 108q207 0 389 -106q101 -59 162 -121q71 -72 125 -166q104 -179 104 -395q0 -287 -184 -506l231 -256h-235l-125 133q-211 -162 -467 -162q-210 0 -392.5 106.5t-286 289.5t-103.5 395zM231 717q0 -170 82 -311 q37 -64 98.5 -126.5t127.5 -101.5q138 -82 309 -82q121 0 231 47q177 76 273 228q104 165 104 346q0 167 -82 311q-85 148 -222 229.5t-304 81.5q-125 0 -238 -47q-69 -29 -104 -53q-44 -31 -94 -82q-181 -186 -181 -440z" />
<glyph unicode="R" horiz-adv-x="1296" d="M66 -45v1536h806q120 0 203 -39q91 -43 129 -115q39 -75 39 -176q0 -174 -158 -270q-51 -31 -116 -47l282 -885h-176l-289 866h-542v-870h-178zM248 1012h571q248 0 248 143q0 162 -205 162h-614v-305z" />
<glyph unicode="S" horiz-adv-x="1280" d="M66 1155q0 186 151 281q71 45 158 45h753v-168h-741q-67 0 -109 -44t-42 -108q0 -74 46.5 -117t120.5 -43h285q167 0 282 -63.5t181 -181.5q70 -124 70 -258q0 -146 -69.5 -271t-193.5 -198q-119 -70 -256 -70h-632v160h606q99 0 184 49q82 47 134.5 140t52.5 198 q0 52 -23 106q-15 35 -31 62q-37 61 -121 112q-72 43 -180 43h-301q-153 0 -244 95q-81 85 -81 231z" />
<glyph unicode="T" horiz-adv-x="1266" d="M61 1313v160h1143v-160h-487v-1358h-166v1358h-490z" />
<glyph unicode="U" d="M61 553v932h170v-914q0 -58 25 -170q60 -163 209 -229q83 -37 180 -37q122 0 221 66q92 61 138.5 164.5t46.5 255.5v864h170v-873q0 -257 -140 -444q-68 -92 -178 -145q-131 -64 -256 -64q-177 0 -315 92q-50 33 -94 74q-81 75 -129 188t-48 240z" />
<glyph unicode="V" horiz-adv-x="1513" d="M45 1485h188l529 -1200l526 1196h197l-727 -1624z" />
<glyph unicode="W" horiz-adv-x="1847" d="M57 1485h187l309 -1159l362 733l373 -719l297 1145h172l-426 -1657l-416 823l-413 -809z" />
<glyph unicode="X" horiz-adv-x="1245" d="M37 -41l508 897l-342 625h209l237 -441l252 441h191l-351 -607l486 -919h-191l-397 733l-418 -729h-184z" />
<glyph unicode="Y" horiz-adv-x="1180" d="M4 1481h207l381 -477l385 481h209l-512 -641v-885h-168v885z" />
<glyph unicode="Z" horiz-adv-x="1286" d="M57 -41v133l924 1235h-920v168h1168v-133l-932 -1235h928v-168h-1168z" />
<glyph unicode="[" horiz-adv-x="596" d="M61 -453v1938h461v-180h-237v-1573h250v-185h-474z" />
<glyph unicode="\" horiz-adv-x="940" d="M49 1481h199l657 -1526h-203z" />
<glyph unicode="]" horiz-adv-x="592" d="M53 -268h244v1573h-236v180h461v-1938h-469v185z" />
<glyph unicode="^" horiz-adv-x="647" d="M-2 1227l262 254h174l217 -254h-213l-100 110l-105 -110h-235z" />
<glyph unicode="_" horiz-adv-x="1270" d="M-53 -238h1394v-108h-1394v108z" />
<glyph unicode="`" horiz-adv-x="338" d="M-12 1485h188l168 -246h-174z" />
<glyph unicode="a" horiz-adv-x="1063" d="M66 356q0 105 59 189q53 77 156 127q95 47 208 47h314l-19 45q-14 32 -52 56t-81 24h-501v178h464q99 0 181 -41q186 -93 186 -297v-729h-565q-97 0 -180 57t-125 144q-45 92 -45 200zM236 330q0 -94 57 -152q54 -55 180 -55h334v416h-346q-130 0 -195 -105 q-14 -22 -22 -50t-8 -54z" />
<glyph unicode="b" horiz-adv-x="1059" d="M94 -41v1569h176v-504h207q320 0 475 -260q74 -124 74 -270q0 -155 -65 -275t-199 -190t-305 -70h-363zM270 127h176q256 0 355 182q47 86 47 187q0 59 -10 94q-8 29 -39 86q-90 168 -330 168h-199v-717z" />
<glyph unicode="c" horiz-adv-x="1051" d="M66 489q0 151 71.5 272.5t201 191t279.5 69.5h367v-172h-360q-227 0 -334 -184q-51 -88 -51 -174q0 -172 120 -270q111 -91 287 -91h338v-172h-348q-174 0 -307 70q-264 139 -264 460z" />
<glyph unicode="d" horiz-adv-x="1042" d="M16 489q0 145 73.5 269t202 194t273.5 70h209v506h174v-1573h-362q-263 0 -416 151q-61 60 -88 111q-66 123 -66 272zM193 492q0 -176 116 -276q109 -93 289 -93h176v721h-205q-233 0 -327 -168q-49 -87 -49 -184z" />
<glyph unicode="e" horiz-adv-x="1032" d="M45 489q0 150 74 271t199 191.5t280 70.5h371v-178h-406q-96 0 -170 -45q-48 -29 -84 -80h660v-180h-740l-2 -45v-18q0 -92 47 -173q100 -172 355 -172h340v-172h-351q-364 0 -505 258q-68 125 -68 272z" />
<glyph unicode="f" horiz-adv-x="647" d="M115 -41v1118q0 207 137 334q56 52 147 78q85 24 164 24h76v-172h-76q-196 0 -254 -155q-20 -53 -20 -133v-25h350v-184h-346v-885h-178z" />
<glyph unicode="g" horiz-adv-x="1055" d="M18 -104h183q0 -41 4 -78q13 -121 112 -205q66 -57 181 -57q176 0 256 151q39 74 39 170v82h-195q-243 0 -410 156q-68 63 -116 174q-43 99 -43 219q0 135 77 262q154 254 472 254h391v-1161q0 -274 -232 -414q-108 -65 -235 -65q-169 0 -298 102q-123 99 -167 256 q-19 68 -19 154zM211 504q0 -175 114 -275q107 -94 281 -94h182v709h-190q-242 0 -336 -160q-51 -87 -51 -180z" />
<glyph unicode="h" horiz-adv-x="1059" d="M25 -41v1569h184v-500h334q103 0 198 -35q92 -34 154 -112q66 -83 66 -199v-719h-179v699q0 188 -235 188h-336v-891h-186z" />
<glyph unicode="i" horiz-adv-x="416" d="M123 1399q0 41 24 71q29 29 68 29q54 0 90 -57q8 -19 8 -43q0 -42 -28 -68t-70 -26q-39 0 -68 28q-10 13 -17 30t-7 36zM129 -41v1038h176v-1038h-176z" />
<glyph unicode="j" horiz-adv-x="416" d="M-639 -129h166q12 -121 51 -184q90 -144 262 -144q81 0 151 45.5t103 120t33 160.5v1159h170v-1159q0 -135 -53 -246q-22 -45 -68 -100q-42 -50 -92 -82q-108 -70 -244 -70q-119 0 -233 62q-107 58 -174 168q-38 62 -54 118q-18 62 -18 152zM111 1415q0 41 25.5 69.5 t70.5 28.5q41 0 65 -26q29 -25 29 -72q0 -40 -27 -67t-67 -27q-41 0 -68 27q-28 22 -28 67z" />
<glyph unicode="k" horiz-adv-x="993" d="M61 -41v1565h170v-779l539 279h178l21 -76l-451 -256l506 -733h-197l-454 655l-142 -69v-586h-170z" />
<glyph unicode="l" horiz-adv-x="416" d="M127 -41v1565h174v-1565h-174z" />
<glyph unicode="m" horiz-adv-x="1368" d="M41 -47v672q0 106 45 194q47 92 129.5 150.5t181.5 58.5q108 0 197 -49q61 -34 104 -82q36 48 93 86q79 53 190 53q71 0 137 -28q25 -10 62 -31q94 -64 137 -156q29 -62 29 -137v-725h-177v657q0 67 -20.5 122t-63.5 85q-34 33 -96 33q-102 0 -157 -68q-50 -62 -50 -167 v-662h-172v676q0 90 -62.5 155.5t-141.5 65.5q-85 0 -139 -80q-48 -71 -48 -160v-655z" />
<glyph unicode="n" horiz-adv-x="997" d="M45 -41v621q0 125 69 233q68 105 181.5 164t236.5 59q120 0 225 -61t165 -166q55 -96 55 -205v-649h-174v629q0 153 -141 237q-66 39 -140 39q-87 0 -153 -41q-60 -38 -111 -114q-39 -72 -39 -156v-590h-174z" />
<glyph unicode="o" horiz-adv-x="1141" d="M29 489q0 151 71.5 275.5t195.5 198t269 73.5q313 0 467 -270q72 -126 72 -277q0 -143 -72.5 -271.5t-195.5 -199.5t-271 -71q-143 0 -270 76q-266 159 -266 466zM205 489q0 -104 47 -188q19 -33 59 -76q104 -110 256 -110q202 0 312 186q51 86 51 191q0 98 -50 185 t-135 136q-81 47 -180 47q-204 0 -311 -182q-49 -83 -49 -189z" />
<glyph unicode="p" horiz-adv-x="1014" d="M76 -608v1632h362q360 0 502 -256q68 -123 68 -274q0 -144 -72.5 -267t-197 -193.5t-281.5 -70.5h-207v-571h-174zM250 135h196q113 0 203 47q180 94 180 310q0 220 -186 319q-92 49 -215 49h-178v-725z" />
<glyph unicode="q" horiz-adv-x="1032" d="M29 485q0 113 34 211q32 92 109 172q73 76 170 115q102 41 240 41h362v-1632h-174v567h-188q-147 0 -275 67q-132 70 -205 192t-73 267zM209 467q0 -161 113 -252q105 -84 270 -84h174v713h-174q-178 0 -280.5 -100t-102.5 -277z" />
<glyph unicode="r" horiz-adv-x="643" d="M106 -35v733q0 195 179 287q84 43 172 43h170v-172h-162q-120 0 -168 -102q-9 -20 -13.5 -46t-4.5 -57v-694z" />
<glyph unicode="s" horiz-adv-x="1034" d="M66 -45v176h559q47 0 97 28.5t76.5 78t26.5 104.5q0 48 -30 107q-55 108 -189 108h-311q-65 0 -115 35q-108 75 -108 207q0 134 131 198q64 31 123 31h581v-172h-585q-17 0 -33.5 -5t-26.5 -15q-18 -13 -22 -50q0 -41 49 -51q18 -4 82 -4h227q113 0 201 -47 q47 -25 82 -57q33 -36 61 -82q55 -90 55 -189q0 -231 -194 -348q-88 -53 -193 -53h-544z" />
<glyph unicode="t" horiz-adv-x="629" d="M57 338v1186h179v-506h337v-180h-337v-512q0 -97 34 -160q25 -47 105 -47h190v-164h-207q-301 0 -301 383z" />
<glyph unicode="u" horiz-adv-x="1051" d="M84 408v620h172v-616q0 -176 152 -267q69 -41 151 -41q68 0 136 41.5t104 104.5q12 21 26 63q11 33 11 64v651h172v-645q0 -120 -65.5 -222t-166.5 -161q-105 -61 -215 -61q-120 0 -231 55q-118 58 -183 171q-63 108 -63 243z" />
<glyph unicode="v" horiz-adv-x="1153" d="M45 1024h195l352 -750l338 750h196l-528 -1163z" />
<glyph unicode="w" horiz-adv-x="1438" d="M72 358v666h182v-657q0 -115 53 -193q48 -70 131 -70q63 0 105 27q96 62 96 215v676h178v-655q0 -263 203 -263q96 0 164 103q28 43 28 94v721h185v-709q0 -222 -201 -331q-42 -22 -91 -37t-91 -15q-97 0 -189 54q-54 32 -94 82l-45 -46q-42 -36 -117 -63 q-63 -23 -129 -23q-89 0 -157 35q-75 39 -119 94q-92 117 -92 295z" />
<glyph unicode="x" horiz-adv-x="1032" d="M43 -45l385 625l-276 448h196l180 -289l174 289h195l-272 -448l383 -625h-197l-283 465l-290 -465h-195z" />
<glyph unicode="y" horiz-adv-x="1032" d="M66 326v678h174v-703q0 -87 61 -135q43 -35 107 -35h391v870h174v-1159q0 -120 -60.5 -228.5t-162.5 -171.5q-105 -63 -226 -63q-185 0 -315 113q-63 55 -100 141q-39 91 -39 236h174q0 -64 18 -131q12 -45 29 -71q22 -34 53 -64q62 -60 172 -60q80 0 146 37 q62 35 98 109q39 80 39 172v98h-363q3 0 -59 2q-21 1 -66 6q-60 13 -106 45q-139 97 -139 314z" />
<glyph unicode="z" horiz-adv-x="1051" d="M72 -45v154l669 745h-669v170h925v-147l-665 -746h669v-176h-929z" />
<glyph unicode="{" horiz-adv-x="633" d="M78 559q137 27 137 213v395q0 127 64 224q62 94 194 94h78l10 -80q-43 -12 -61 -27l-54 -57q-19 -20 -30 -109l4 -16v-420q0 -174 -107 -250q103 -71 103 -268v-438q0 -66 43.5 -120.5t107.5 -66.5l-6 -82l-57 -4q-88 -6 -190.5 58t-102.5 241v451q0 80 -35.5 130 t-91.5 50z" />
<glyph unicode="|" horiz-adv-x="289" d="M47 -457v1938h203v-1938h-203z" />
<glyph unicode="}" horiz-adv-x="647" d="M78 -362q65 12 107 66.5t42 119.5v440q0 193 101 260q-105 74 -105 252v410q0 180 -145 219l10 80h59q133 0 201 -68q54 -45 73 -116q11 -47 11 -130v-395l-4 -55q12 -135 143 -158l-6 -82q-65 0 -98 -47q-35 -50 -35 -133v-455q0 -295 -295 -295l-55 5z" />
<glyph unicode="~" horiz-adv-x="602" d="M66 1311q14 170 143 170q41 0 72 -11l104 -36q-6 -4 -6 -9l16 11l2 45h156v-62q0 -70 -41 -104q-14 -12 -43 -23t-66 -20l-45 10l-32 8l-62 21l-24 6v-45h-129v51q-9 -31 -23 -31q-10 0 -22 19z" />
<glyph unicode="&#xa1;" horiz-adv-x="309" d="M66 539h178v-1143h-178v1143zM70 811q0 43 22 63q23 25 64 25q88 0 88 -88q0 -35 -26.5 -59.5t-61.5 -24.5q-86 0 -86 84z" />
<glyph unicode="&#xa2;" horiz-adv-x="1155" d="M66 635q0 253 151 426q127 146 315 205v116h173v-92h378v-172h-374v-991h381v-172h-385v-86h-173v111q-101 29 -202 98q-264 181 -264 557zM231 625q0 -107 45.5 -210t122.5 -169q61 -53 133 -82v915q-62 -29 -114 -71q-187 -149 -187 -383z" />
<glyph unicode="&#xa3;" horiz-adv-x="1153" d="M66 -45v1028q0 284 258 428q118 66 254 66q118 0 219 -45q106 -48 180 -138q71 -85 113 -258h-166q-43 143 -134.5 208t-214.5 65q-88 0 -165 -45q-37 -22 -69 -53.5t-54 -67.5q-47 -79 -56 -170l865 2v-160h-860v-706h856v-154h-1026z" />
<glyph unicode="&#xa4;" horiz-adv-x="1139" d="M2 1137l154 155l120 -118q125 92 293 92q166 0 293 -92l123 118l156 -155l-119 -115q46 -68 68 -141t22 -160q0 -174 -90 -307l115 -119l-150 -150l-117 119q-131 -96 -301 -96q-78 0 -162 27.5t-139 68.5l-114 -121l-150 152l113 119q-90 132 -90 305q0 174 88 303z M258 719q0 -132 90.5 -229t220.5 -97q134 0 224 98q88 95 88 230q0 128 -90.5 223.5t-221.5 95.5q-130 0 -220.5 -95t-90.5 -226z" />
<glyph unicode="&#xa5;" horiz-adv-x="1290" d="M51 1491h197l399 -678l393 678h197l-338 -584h209v-176h-313l-62 -110v-35h375v-178h-375v-449h-176v449h-377v178h377v35l-63 110h-314v176h211z" />
<glyph unicode="&#xa6;" horiz-adv-x="215" d="M47 -457v1938h203v-1938h-203z" />
<glyph unicode="&#xa7;" horiz-adv-x="1133" d="M70 639q0 198 180 309l8 6q-78 97 -78 222q0 101 60 182q58 78 143 119q89 43 186 43q118 0 213 -56q99 -58 146 -149q49 -94 49 -256h-195q0 102 -28 160q-63 102 -181 102q-63 0 -124 -33q-49 -27 -58 -78l-8 -47q0 -92 131 -174l299 -188q128 -80 183 -145 q79 -92 79 -212q0 -101 -49 -176q-44 -68 -135 -135l-19 -14q97 -101 97 -232q0 -108 -56 -184q-51 -83 -149 -131q-92 -45 -195 -45q-155 0 -269 98.5t-139 249.5q-7 40 -7 84q6 6 6 10v2q-2 6 -2 27h204v-64q-4 -22 -4 -28q11 -83 62 -125q64 -53 149 -53q105 0 154 73 q22 41 22 84q0 56 -22 97q-13 23 -29 41q-7 8 -37 28l-419 285q-168 114 -168 303zM256 662q0 -97 104 -166l383 -254l23 12q113 59 113 166q0 86 -91 145l-403 262l-18 -10q-111 -62 -111 -155z" />
<glyph unicode="&#xa8;" horiz-adv-x="582" d="M66 1372q0 50 31.5 81.5t76.5 31.5q51 0 78 -33q37 -31 37 -80q0 -45 -37.5 -78.5t-77.5 -33.5q-49 0 -78 36q-30 29 -30 76zM301 1372q0 49 37 80q29 33 78 33q96 0 110 -111q0 -48 -31 -81t-79 -33q-51 0 -78 32q-37 31 -37 80z" />
<glyph unicode="&#xa9;" horiz-adv-x="1636" d="M72 721q0 206 100 382t277.5 281t375.5 105q205 0 379 -105q178 -108 275 -278q100 -176 100 -385q0 -205 -99.5 -380.5t-275.5 -279.5q-172 -102 -379 -102q-202 0 -380.5 106.5t-275.5 277.5t-97 378zM227 721q0 -160 82 -301t220.5 -223t295.5 -82q161 0 298.5 80.5 t219.5 221t82 304.5q0 162 -80.5 303t-220.5 223q-136 80 -299 80q-161 0 -298 -80.5t-218.5 -221.5t-81.5 -304zM401 711q0 60 15 130t37 124q49 119 147 187.5t225 68.5q248 0 340 -191q33 -69 45 -174h-166q0 49 -7 71.5t-23 47.5q-17 22 -33 37q-73 49 -152 49 q-130 0 -188 -94q-63 -101 -63 -250q0 -146 51 -236q46 -82 182 -98q192 0 248 233h170q-33 -154 -86 -223q-61 -80 -144 -121q-87 -43 -198 -43q-61 0 -125 23q-176 63 -234 235q-36 106 -36 220z" />
<glyph unicode="&#xaa;" horiz-adv-x="647" d="M80 840v131h500v-131h-500zM80 1145q0 96 72 149q61 56 161 56h125l-4 4q-16 16 -39 16h-268v133h246q113 0 176 -92q31 -46 31 -102v-383h-304q-83 0 -141 69q-55 66 -55 150zM209 1133q0 -80 94 -80h150v164h-150q-41 0 -67.5 -25.5t-26.5 -58.5z" />
<glyph unicode="&#xab;" horiz-adv-x="709" d="M63 477l265 455h198l-274 -457l270 -426h-194zM221 477l266 455h199l-274 -457l270 -426h-195z" />
<glyph unicode="&#xac;" horiz-adv-x="1630" d="M61 465v192h1512v-698h-199v506h-1313z" />
<glyph unicode="&#xad;" horiz-adv-x="606" d="M61 633v168h482v-168h-482z" />
<glyph unicode="&#xae;" horiz-adv-x="1632" d="M72 725q0 205 100 379.5t277.5 279.5t375.5 105q206 0 382.5 -106t275.5 -277q102 -177 102 -381q0 -210 -102 -383q-105 -179 -279 -281t-379 -102q-203 0 -376 104q-88 53 -155 120t-120 159q-102 177 -102 383zM227 721q0 -160 82 -301t220.5 -223t295.5 -82 q161 0 298.5 80.5t219.5 221t82 304.5q0 162 -80.5 303t-220.5 223q-136 80 -299 80q-161 0 -298 -80.5t-218.5 -221.5t-81.5 -304zM498 242h168v391h215q61 0 80 -12q49 -31 49 -193q0 -100 39 -190h206q-38 51 -55 81q-7 13 -16 35l-10 80v68q0 84 -27 143q-16 34 -43 57 q104 74 104 222q0 149 -112 213q-92 53 -242 53h-356v-948zM666 786h200q181 0 181 121q0 125 -181 125h-200v-246z" />
<glyph unicode="&#xaf;" horiz-adv-x="682" d="M-20 1243v199h722v-199h-722z" />
<glyph unicode="&#xb0;" horiz-adv-x="829" d="M70 1143q0 143 98.5 240.5t241.5 97.5q145 0 242.5 -96.5t97.5 -241.5q0 -147 -96.5 -244.5t-243.5 -97.5q-148 0 -244 97t-96 245zM250 1143q0 -66 47 -119t113 -53t112.5 53t46.5 119q0 67 -47.5 117.5t-113.5 50.5q-63 0 -110.5 -52.5t-47.5 -115.5z" />
<glyph unicode="&#xb1;" horiz-adv-x="979" d="M53 -45v160h881v-160h-881zM53 551v184h361v357h178v-357h342v-184h-346v-352h-174v352h-361z" />
<glyph unicode="&#xb2;" horiz-adv-x="735" d="M-35 535q0 289 236 419l209 115q67 45 67 119v8q0 84 -131 84q-88 0 -121 -66q-16 -32 -26 -124h-201q0 233 139 329q90 62 225 62q143 0 238 -76q102 -83 102 -223q0 -94 -43 -160q-53 -81 -223 -168l-92 -47q-20 -10 -55 -33q-25 -17 -41 -33h454v-206h-737z" />
<glyph unicode="&#xb3;" horiz-adv-x="735" d="M-35 881h223q0 -83 23 -119q31 -49 115 -49q155 0 155 104q0 72 -61 94q-36 13 -109 13h-88v186h96q127 0 127 96q0 74 -122 74q-127 0 -127 -164h-205q0 365 350 365q158 0 244 -74t86 -195q0 -68 -29 -122q-40 -74 -92 -86v57q70 -20 113 -74t43 -156q0 -159 -115 -244 q-102 -75 -268 -75q-100 0 -191 43q-144 68 -168 326z" />
<glyph unicode="&#xb4;" horiz-adv-x="387" d="M25 1239l165 246h191l-182 -246h-174z" />
<glyph unicode="&#xb5;" horiz-adv-x="1278" d="M-4 -346l6 84l27 98q6 20 16 64q2 9 6 28l10 70v1087h265v-768q0 -63 39 -120q43 -62 104 -62q44 0 100 29t88 69q17 22 26 42t9 38v772h252v-862q0 -53 29 -96q21 -31 53 -37q45 19 53 66l27 86h127l-35 -115q-20 -98 -115 -160q-82 -53 -174 -53q-65 6 -121 54 q-32 28 -90 102q-6 -7 -10 -13l19 23q-136 -162 -299 -162q-59 0 -144 41q-14 6 -43 23q-23 11 -28 12q8 -14 16 -29v47q0 -49 4 -67l27 -78l28 -94l11 -59q4 -25 4 -46q0 -69 -39 -119q-42 -55 -109 -55q-62 0 -102.5 51.5t-36.5 108.5z" />
<glyph unicode="&#xb6;" horiz-adv-x="1120" d="M72 1040q0 121 58 225.5t157 161.5q44 25 108 43q54 15 117 15h547v-1938h-215v1717h-170v-1721h-211v1065q-92 8 -176 58q-215 128 -215 374z" />
<glyph unicode="&#xb7;" horiz-adv-x="342" d="M76 659q0 46 28.5 76.5t73.5 30.5t76 -31t31 -76q0 -51 -33 -77q-25 -25 -72 -31q-45 0 -74.5 31.5t-29.5 76.5z" />
<glyph unicode="&#xb8;" horiz-adv-x="682" d="M41 -436l65 153q105 -41 152 -41q76 0 76 45q0 39 -58 39q-19 0 -92 -22l-73 84l161 219h193q-37 -57 -68 -96q-16 -15 -30 -31l6 14q-15 -2 -23 -3t-14 -3h24q97 0 154 -51t57 -141q0 -111 -87 -175q-79 -57 -193 -57q-107 0 -250 66z" />
<glyph unicode="&#xb9;" horiz-adv-x="735" d="M47 1141v172q135 13 172 32q64 31 90 136h187v-946h-228v606h-221z" />
<glyph unicode="&#xba;" horiz-adv-x="702" d="M61 1212q0 125 83 209t206 84q166 0 252 -143q41 -68 41 -148q0 -120 -86.5 -207t-206.5 -87q-117 0 -203 88t-86 204zM66 844v127h573v-127h-573zM188 1208q0 -92 80 -139q43 -25 82 -25q65 0 112.5 49t47.5 115q0 97 -82 146q-33 20 -78 20q-84 0 -141 -82 q-21 -39 -21 -84z" />
<glyph unicode="&#xbb;" horiz-adv-x="725" d="M31 926h198l267 -453l-267 -424h-194l270 422zM193 49l270 422l-270 455h200l266 -453l-266 -424h-200z" />
<glyph unicode="&#xbc;" horiz-adv-x="1810" d="M109 1147v168q128 0 172 24q61 31 90 142h180v-946h-221v612h-221zM244 -80l954 1561h211l-954 -1561h-211zM817 152v180l443 573h192v-553h137v-200h-137v-193h-213v193h-422zM1067 352h172v246q24 24 57 53z" />
<glyph unicode="&#xbd;" horiz-adv-x="1810" d="M47 1141v174q139 0 183.5 30.5t82.5 135.5h183v-946h-228v606h-221zM170 -80l954 1561h211l-954 -1561h-211zM891 -41q0 141 51 243.5t174 170.5l129 71q16 8 47 25q107 59 107 143q0 93 -129 93q-148 0 -148 -191h-202q0 391 362 391q148 0 241 -75q101 -82 101 -226 q0 -108 -59 -180q-56 -67 -211 -148l-90 -47q-67 -35 -95 -63h455v-207h-733z" />
<glyph unicode="&#xbe;" horiz-adv-x="1810" d="M49 881h221q0 -168 138 -168q155 0 155 104q0 69 -51 93q-34 16 -113 16h-45q-47 -2 -49 -2v186h72q79 0 106 12q45 20 45 82q0 37 -24.5 56.5t-95.5 19.5q-129 0 -129 -164h-205q0 365 348 365q135 0 227 -64q105 -73 105 -203q0 -120 -84 -184q-12 -8 -19 -14 q-15 -14 -20 -15q0 19 -3 36.5t-7 29.5q167 -45 167 -236q0 -158 -113 -243q-102 -76 -265 -76q-361 0 -361 369zM365 -80l954 1561h211l-955 -1561h-210zM928 152v178l442 575h193v-553h137v-200h-137v-193h-213v193h-422zM1178 352h172v301h57z" />
<glyph unicode="&#xbf;" horiz-adv-x="1145" d="M66 -283q0 95 49 174q30 40 58 65t77 50q85 43 182 43h123v481h170v-653h-301q-54 0 -90 -18q-86 -43 -86 -142q0 -66 53 -106q57 -43 135 -43h664v-172h-684q-197 0 -301 158q-49 74 -49 163zM541 815q0 35 23.5 61.5t64.5 26.5q84 0 84 -88q0 -37 -24 -62.5t-60 -25.5 q-39 0 -63.5 28.5t-24.5 59.5z" />
<glyph unicode="&#xc0;" horiz-adv-x="1280" d="M66 -41v936q0 376 286 545q135 80 295 80q115 0 225 -45q102 -42 184 -126t124 -186q45 -109 45 -233v-975h-170v883h-824v-879h-165zM248 1008h803q-36 195 -209 297q-90 53 -197 53q-97 0 -184 -51q-184 -108 -213 -299zM479 1761h185l170 -248h-175z" />
<glyph unicode="&#xc1;" d="M66 -41v936q0 376 286 545q135 80 295 80q115 0 225 -45q102 -42 184 -126t124 -186q45 -109 45 -233v-975h-170v883h-824v-879h-165zM248 1008h803q-36 195 -209 297q-90 53 -197 53q-97 0 -184 -51q-184 -108 -213 -299zM487 1520l168 245h189l-182 -245h-175z" />
<glyph unicode="&#xc2;" horiz-adv-x="1278" d="M66 -41v936q0 376 286 545q135 80 295 80q115 0 225 -45q102 -42 184 -126t124 -186q45 -109 45 -233v-975h-170v883h-824v-879h-165zM248 1008h803q-36 195 -209 297q-90 53 -197 53q-97 0 -184 -51q-184 -108 -213 -299zM336 1520l262 254h174l215 -254h-211l-100 112 l-103 -112h-237z" />
<glyph unicode="&#xc3;" d="M66 -41v936q0 376 286 545q135 80 295 80q115 0 225 -45q102 -42 184 -126t124 -186q45 -109 45 -233v-975h-170v883h-824v-879h-165zM248 1008h803q-36 195 -209 297q-90 53 -197 53q-97 0 -184 -51q-184 -108 -213 -299zM420 1524q0 107 43 159t102 52q43 0 74 -15 l86 -30l29 -17l-11 15q-6 -5 -6 -11q13 6 13 58h161v-62q0 -119 -151 -153q-25 0 -86 20l-70 23h-12v-39h-172z" />
<glyph unicode="&#xc4;" horiz-adv-x="1270" d="M66 -41v936q0 376 286 545q135 80 295 80q115 0 225 -45q102 -42 184 -126t124 -186q45 -109 45 -233v-975h-170v883h-824v-879h-165zM248 1008h803q-36 195 -209 297q-90 53 -197 53q-97 0 -184 -51q-184 -108 -213 -299zM444 1628q0 43 32 77t79 34q49 0 82 -31t33 -80 q0 -44 -35 -80q-25 -26 -78 -35q-43 0 -78 35t-35 80zM682 1628q0 27 7.5 46.5t27.5 35.5q37 29 78 29q47 0 79.5 -32t32.5 -79q0 -45 -32 -77t-78 -38q-41 0 -78 35t-37 80z" />
<glyph unicode="&#xc5;" horiz-adv-x="1280" d="M66 -41v936q0 376 286 545q135 80 295 80q115 0 225 -45q102 -42 184 -126t124 -186q45 -109 45 -233v-975h-170v883h-824v-879h-165zM248 1008h803q-36 195 -209 297q-90 53 -197 53q-97 0 -184 -51q-184 -108 -213 -299zM496 1665q0 64 41 107q44 47 106 47 q60 0 107 -47q18 -18 31.5 -47t13.5 -60q0 -63 -43 -106q-46 -46 -109 -46q-58 0 -104 46q-43 43 -43 106z" />
<glyph unicode="&#xc6;" horiz-adv-x="2277" d="M61 -41v942q0 184 76 328q72 137 212.5 218t293.5 81q299 0 467 -240h-59v207h1167v-178h-977v-316h977v-184h-977v-686h977v-172h-1167v862h-815v-862h-175zM246 1004h794q-15 93 -71 172q-69 98 -181 147q-76 33 -147 33q-92 0 -182.5 -53t-151.5 -148q-28 -44 -39 -72 q-13 -34 -22 -79z" />
<glyph unicode="&#xc7;" horiz-adv-x="1278" d="M72 721q0 158 60.5 302.5t172.5 248.5q118 110 257.5 164.5t322.5 54.5h352v-174h-375q-233 0 -418 -174q-83 -78 -136.5 -190t-53.5 -236q0 -156 47 -260q22 -49 56.5 -100t72.5 -85q169 -149 447 -149h364v-164h-338v-68h78q98 0 158 -57q57 -54 57 -151 q0 -93 -63.5 -149t-157.5 -56h-191v106h191q108 0 108 101q0 39 -31.5 68.5t-70.5 29.5h-197v176q-131 0 -278 66q-277 125 -385 424q-49 135 -49 272z" />
<glyph unicode="&#xc8;" horiz-adv-x="1319" d="M86 -45v1540h1147v-178h-959v-316h959v-184h-959v-686h959v-176h-1147zM492 1765h188l168 -245h-174z" />
<glyph unicode="&#xc9;" horiz-adv-x="1257" d="M86 -45v1540h1147v-178h-959v-316h959v-184h-959v-686h959v-176h-1147zM520 1520l166 245h188l-178 -245h-176z" />
<glyph unicode="&#xca;" horiz-adv-x="1296" d="M86 -45v1540h1147v-178h-959v-316h959v-184h-959v-686h959v-176h-1147zM332 1520l262 254h174l217 -254h-213l-100 112l-103 -112h-237z" />
<glyph unicode="&#xcb;" horiz-adv-x="1319" d="M86 -45v1540h1147v-178h-959v-316h959v-184h-959v-686h959v-176h-1147zM461 1632q0 41 31 78q38 33 77 33q47 0 81 -32t34 -79q0 -52 -33 -82t-82 -30q-47 0 -77.5 32.5t-30.5 79.5zM696 1632q0 45 35 80q37 31 80 31q51 0 78 -33q33 -33 33 -78q0 -49 -31 -78 q-29 -34 -80 -34q-44 0 -79.5 31.5t-35.5 80.5z" />
<glyph unicode="&#xcc;" horiz-adv-x="424" d="M41 1761h188l166 -248h-174zM133 -41v1518h172v-1518h-172z" />
<glyph unicode="&#xcd;" horiz-adv-x="424" d="M61 1513l168 248h191l-184 -248h-175zM133 -41v1518h172v-1518h-172z" />
<glyph unicode="&#xce;" horiz-adv-x="424" d="M-131 1520l266 254h174l217 -254h-211l-102 112l-100 -112h-244zM133 -41v1518h172v-1518h-172z" />
<glyph unicode="&#xcf;" horiz-adv-x="424" d="M-25 1632q0 47 31 78q27 33 80 33q49 0 82 -33t33 -78q0 -47 -36.5 -79.5t-78.5 -32.5q-49 0 -80 31.5t-31 80.5zM133 -41v1518h172v-1518h-172zM211 1630q0 47 35 82q37 31 80 31q51 0 77 -33q33 -33 33 -78q0 -49 -30 -78q-29 -34 -80 -34q-46 0 -82 34q-25 24 -33 76z " />
<glyph unicode="&#xd0;" horiz-adv-x="1479" d="M-41 627v258h166v626h639q322 0 500 -233q157 -206 157 -520q0 -323 -141 -535q-175 -264 -526 -264h-629v668h-166zM406 211h346q200 0 301 170q82 138 82 360q0 223 -83 356q-101 163 -311 163h-335v-375h393v-258h-393v-416z" />
<glyph unicode="&#xd1;" horiz-adv-x="1270" d="M66 -41v1514h133l848 -461v448h174v-1501h-170v852l-820 438v-1290h-165zM436 1524q0 110 42 160.5t104 50.5q43 0 73 -15l86 -30l13 -7l8 -2q-4 -8 -9 -12t-14 -8q27 26 27 74h160v-62q0 -119 -152 -153q-36 4 -86 20l-70 23h-12v-39h-170z" />
<glyph unicode="&#xd2;" horiz-adv-x="1665" d="M57 721q0 213 105.5 396t281 287.5t385.5 104.5q160 0 304 -61q292 -124 413 -422q64 -158 64 -305q0 -211 -103.5 -390.5t-286 -288t-391.5 -108.5q-208 0 -386 105.5t-282 289t-104 392.5zM227 721q0 -162 82.5 -308.5t220.5 -230.5q135 -82 299 -82t305 85 q138 83 222 227q82 141 82 309q0 169 -82 311q-45 78 -95.5 130.5t-127.5 97.5q-139 81 -304 81q-162 0 -299 -81q-66 -39 -122 -97q-58 -61 -99 -131q-82 -142 -82 -311zM631 1765h188l168 -245h-174z" />
<glyph unicode="&#xd3;" horiz-adv-x="1665" d="M57 721q0 213 105.5 396t281 287.5t385.5 104.5q160 0 304 -61q292 -124 413 -422q64 -158 64 -305q0 -211 -103.5 -390.5t-286 -288t-391.5 -108.5q-208 0 -386 105.5t-282 289t-104 392.5zM227 721q0 -162 82.5 -308.5t220.5 -230.5q135 -82 299 -82t305 85 q138 83 222 227q82 141 82 309q0 169 -82 311q-45 78 -95.5 130.5t-127.5 97.5q-139 81 -304 81q-162 0 -299 -81q-66 -39 -122 -97q-58 -61 -99 -131q-82 -142 -82 -311zM627 1520l172 245h184l-178 -245h-178z" />
<glyph unicode="&#xd4;" horiz-adv-x="1665" d="M57 721q0 213 105.5 396t281 287.5t385.5 104.5q160 0 304 -61q292 -124 413 -422q64 -158 64 -305q0 -211 -103.5 -390.5t-286 -288t-391.5 -108.5q-208 0 -386 105.5t-282 289t-104 392.5zM227 721q0 -162 82.5 -308.5t220.5 -230.5q135 -82 299 -82t305 85 q138 83 222 227q82 141 82 309q0 169 -82 311q-45 78 -95.5 130.5t-127.5 97.5q-139 81 -304 81q-162 0 -299 -81q-66 -39 -122 -97q-58 -61 -99 -131q-82 -142 -82 -311zM459 1520l262 254h174l217 -254h-211l-102 112l-101 -112h-239z" />
<glyph unicode="&#xd5;" horiz-adv-x="1686" d="M57 717q0 210 105 395q103 181 278.5 287t388.5 106q211 0 391 -104t285 -287t105 -397q0 -211 -104.5 -392t-287 -288t-389.5 -107q-208 0 -386 105.5t-282 289t-104 392.5zM227 717q0 -162 82.5 -308.5t220.5 -230.5q135 -82 299 -82t305 85q138 83 222 227 q82 141 82 309q0 166 -80.5 311t-222.5 229q-138 82 -306 82q-160 0 -299 -82q-134 -79 -221 -229q-82 -142 -82 -311zM582 1524q0 112 39 159q43 52 104 52q43 0 74 -15l88 -30l14 -9q4 -2 6 -2h2v2q0 3 -2 7q-8 -5 -12 -11q14 9 16 25v33h158v-62q0 -119 -154 -153l-79 20 l-74 23h-12q-2 -4 -5 -7q-5 -7 -30 -32h-133z" />
<glyph unicode="&#xd6;" horiz-adv-x="1669" d="M57 721q0 213 105.5 396t281 287.5t385.5 104.5q160 0 304 -61q292 -124 413 -422q64 -158 64 -305q0 -211 -103.5 -390.5t-286 -288t-391.5 -108.5q-208 0 -386 105.5t-282 289t-104 392.5zM227 721q0 -162 82.5 -308.5t220.5 -230.5q135 -82 299 -82t305 85 q138 83 222 227q82 141 82 309q0 169 -82 311q-45 78 -95.5 130.5t-127.5 97.5q-139 81 -304 81q-162 0 -299 -81q-66 -39 -122 -97q-58 -61 -99 -131q-82 -142 -82 -311zM610 1628q0 36 33 78q44 33 80 33q47 0 76 -31q37 -31 37 -80q0 -91 -111 -115q-47 0 -84 37 q-31 37 -31 78zM848 1628q0 44 34 77.5t79 33.5q47 0 77 -31q35 -29 35 -80q0 -46 -33 -80q-24 -25 -77 -35q-45 0 -80 35t-35 80z" />
<glyph unicode="&#xd7;" horiz-adv-x="1139" d="M23 934l165 160l410 -412l414 412l162 -160l-412 -416l412 -412l-160 -163l-416 411l-414 -413l-159 163l411 414z" />
<glyph unicode="&#xd8;" horiz-adv-x="1665" d="M57 707q0 162 60 311q59 146 166 258q98 103 249 170q141 63 297 63q138 0 254 -39l52 117l145 -82l-45 -110q157 -92 260 -260q115 -186 115 -410q0 -78 -15 -143q-20 -83 -49 -154q-58 -142 -166 -254q-231 -240 -540 -240q-82 0 -135 13q-17 4 -46 10q-18 2 -47 12 l-49 -116l-151 86l45 92q-103 61 -189 153q-149 160 -194 377q-17 82 -17 146zM227 717q0 -115 43 -232q19 -51 49 -100q36 -58 68 -92q62 -66 139 -109l488 1129q-90 28 -180 28q-348 0 -527 -311q-80 -139 -80 -313zM678 119l61 -13q28 -6 109 -6q161 0 298 88 q130 83 212 228q80 142 80 305q0 67 -8 108q-7 38 -33 109q-69 193 -230 299z" />
<glyph unicode="&#xd9;" horiz-adv-x="1266" d="M61 553v932h170v-914q0 -58 25 -170q60 -163 209 -229q83 -37 180 -37q122 0 221 66q92 61 138.5 164.5t46.5 255.5v864h170v-873q0 -257 -140 -444q-68 -92 -178 -145q-131 -64 -256 -64q-177 0 -315 92q-50 33 -94 74q-81 75 -129 188t-48 240zM467 1761h188l168 -248 h-176z" />
<glyph unicode="&#xda;" horiz-adv-x="1266" d="M61 553v932h170v-914q0 -58 25 -170q60 -163 209 -229q83 -37 180 -37q122 0 221 66q92 61 138.5 164.5t46.5 255.5v864h170v-873q0 -257 -140 -444q-68 -92 -178 -145q-131 -64 -256 -64q-177 0 -315 92q-50 33 -94 74q-81 75 -129 188t-48 240zM489 1513l170 248h189 l-184 -248h-175z" />
<glyph unicode="&#xdb;" horiz-adv-x="1266" d="M61 553v932h170v-914q0 -58 25 -170q60 -163 209 -229q83 -37 180 -37q122 0 221 66q92 61 138.5 164.5t46.5 255.5v864h170v-873q0 -257 -140 -444q-68 -92 -178 -145q-131 -64 -256 -64q-177 0 -315 92q-50 33 -94 74q-81 75 -129 188t-48 240zM332 1524l262 254h174 l217 -254h-213l-100 112l-103 -112h-237z" />
<glyph unicode="&#xdc;" horiz-adv-x="1270" d="M61 553v932h170v-914q0 -58 25 -170q60 -163 209 -229q83 -37 180 -37q122 0 221 66q92 61 138.5 164.5t46.5 255.5v864h170v-873q0 -257 -140 -444q-68 -92 -178 -145q-131 -64 -256 -64q-177 0 -315 92q-50 33 -94 74q-81 75 -129 188t-48 240zM457 1628q0 41 30 78 q41 33 78 33q49 0 83 -31.5t34 -79.5q0 -44 -33 -76t-82 -39q-41 0 -75.5 35.5t-34.5 79.5zM692 1628q0 45 34.5 78t80.5 33q51 0 80 -35q31 -31 31 -76t-33 -78q-20 -24 -76 -37q-46 0 -81.5 34.5t-35.5 80.5z" />
<glyph unicode="&#xdd;" horiz-adv-x="1153" d="M4 1481h207l381 -477l385 481h209l-512 -641v-885h-168v885zM461 1509l168 248h188l-178 -248h-178z" />
<glyph unicode="&#xde;" horiz-adv-x="1372" d="M135 -41v1552h281v-243h424q213 0 342 -120q133 -124 133 -335q0 -219 -130 -348t-349 -129h-420v-377h-281zM416 588h352q260 0 260 223q0 110 -64.5 157.5t-179.5 47.5h-368v-428z" />
<glyph unicode="&#xdf;" horiz-adv-x="1049" d="M66 -45v1126q0 235 192 363q89 59 199 59q206 0 321 -176q53 -81 53 -174q0 -41 -4 -64t-16 -59q-23 -53 -51 -78l-23 -20q108 -63 170 -156q82 -123 82 -291q0 -206 -131 -360q-65 -76 -160 -121t-188 -45h-287v172h262q91 0 168 49q74 47 119 133.5t45 182.5 q0 202 -182 305q-86 49 -182 49h-222v174h226q189 0 200 121q0 44 -28 88q-31 48 -72 72q-45 26 -92 26q-121 0 -170 -90q-55 -101 -55 -250v-1036h-174z" />
<glyph unicode="&#xe0;" horiz-adv-x="1034" d="M66 356q0 105 59 189q53 77 156 127q95 47 208 47h314l-19 45q-14 32 -52 56t-81 24h-501v178h464q99 0 181 -41q186 -93 186 -297v-729h-565q-97 0 -180 57t-125 144q-45 92 -45 200zM236 330q0 -94 57 -152q54 -55 180 -55h334v416h-346q-130 0 -195 -105 q-14 -22 -22 -50t-8 -54zM375 1331h188l168 -246h-174z" />
<glyph unicode="&#xe1;" horiz-adv-x="1042" d="M66 356q0 105 59 189q53 77 156 127q95 47 208 47h314l-19 45q-14 32 -52 56t-81 24h-501v178h464q99 0 181 -41q186 -93 186 -297v-729h-565q-97 0 -180 57t-125 144q-45 92 -45 200zM236 330q0 -94 57 -152q54 -55 180 -55h334v416h-346q-130 0 -195 -105 q-14 -22 -22 -50t-8 -54zM393 1077l168 246h189l-183 -246h-174z" />
<glyph unicode="&#xe2;" horiz-adv-x="1051" d="M66 360q0 101 61 189q57 83 154 129q94 45 208 45h314l-19 47q-7 17 -20 33q-13 11 -35 24q-39 23 -80 23h-499v174h464q104 0 185 -41q182 -92 182 -295v-729h-565q-98 0 -180.5 57t-124.5 144q-45 92 -45 200zM236 334q0 -94 57 -152q54 -55 180 -55h334v416h-346 q-57 0 -109 -29q-61 -34 -88.5 -81t-27.5 -99zM236 1085l264 252h174l219 -252h-213l-102 111l-103 -111h-239z" />
<glyph unicode="&#xe3;" horiz-adv-x="1034" d="M66 356q0 105 59 189q53 77 156 127q95 47 208 47h314l-19 45q-14 32 -52 56t-81 24h-501v178h464q99 0 181 -41q186 -93 186 -297v-729h-565q-97 0 -180 57t-125 144q-45 92 -45 200zM236 330q0 -94 57 -152q54 -55 180 -55h334v416h-346q-130 0 -195 -105 q-14 -22 -22 -50t-8 -54zM322 1081q0 56 10 97q28 112 133 112q48 0 74 -12l88 -31l12 -6h4q8 12 8 49h158v-59q0 -121 -150 -154l-49 10l-37 11l-69 20h-15l3 -37h-170z" />
<glyph unicode="&#xe4;" horiz-adv-x="1032" d="M66 356q0 105 59 189q53 77 156 127q95 47 208 47h314l-19 45q-14 32 -52 56t-81 24h-501v178h464q99 0 181 -41q186 -93 186 -297v-729h-565q-97 0 -180 57t-125 144q-45 92 -45 200zM236 330q0 -94 57 -152q54 -55 180 -55h334v416h-346q-130 0 -195 -105 q-14 -22 -22 -50t-8 -54zM326 1200q0 50 31.5 81.5t78.5 31.5q40 0 78 -33q31 -27 37 -78q0 -47 -34 -79.5t-81 -32.5q-45 0 -80 32q-30 27 -30 78zM561 1200q0 49 37 80q12 14 31 23q18 6 45 10q43 0 80 -35q32 -31 32 -78q0 -46 -32 -78t-78 -32q-47 0 -78 30 q-37 29 -37 80z" />
<glyph unicode="&#xe5;" horiz-adv-x="1049" d="M66 356q0 105 59 189q53 77 156 127q95 47 208 47h314l-19 45q-14 32 -52 56t-81 24h-501v178h464q99 0 181 -41q186 -93 186 -297v-729h-565q-97 0 -180 57t-125 144q-45 92 -45 200zM236 330q0 -94 57 -152q54 -55 180 -55h334v416h-346q-130 0 -195 -105 q-14 -22 -22 -50t-8 -54zM432 1247q0 60 45.5 106t104.5 46q65 0 106 -47q45 -43 45 -105q0 -63 -44 -107t-107 -44q-59 0 -104.5 42.5t-45.5 108.5zM580 1245v4h4v-4h-4z" />
<glyph unicode="&#xe6;" horiz-adv-x="1835" d="M66 346q0 113 61 197q34 46 72 78q45 37 88 57q98 45 215 45h325l-18 47q-50 84 -147 84h-496v174h459q87 0 161 -31q46 -19 70 -36q32 -22 66 -58q15 -15 45 -74q37 42 75 72q156 123 355 123h366v-174h-362q-109 0 -203 -51q-59 -32 -90 -80h655v-180h-737l-4 -45 q0 -175 116 -272q108 -91 287 -91h338v-172h-352q-116 0 -266 57q-85 32 -148 88v-145h-565q-96 0 -184 53q-91 55 -136.5 143.5t-45.5 190.5zM248 338q0 -96 54.5 -151.5t182.5 -55.5h344v416h-352q-128 0 -196 -103q-33 -50 -33 -106z" />
<glyph unicode="&#xe7;" horiz-adv-x="1042" d="M70 494q0 312 270 460q129 70 283 70h370v-174h-368q-234 0 -338 -186q-47 -84 -47 -172q0 -172 120 -270q111 -91 287 -91h342v-172h-272v-25h63q88 0 144.5 -51.5t56.5 -136.5q0 -86 -56 -138t-145 -52h-174v106h174q94 0 94 82q0 34 -28 59t-62 25h-178v131 q-137 0 -266 68q-270 142 -270 467z" />
<glyph unicode="&#xe8;" horiz-adv-x="1051" d="M45 489q0 150 74 271t199 191.5t280 70.5h371v-178h-406q-96 0 -170 -45q-48 -29 -84 -80h660v-180h-740l-2 -45q-5 -102 47 -191q100 -172 355 -172h340v-172h-351q-364 0 -505 258q-68 125 -68 272zM516 1317h186l166 -248h-176z" />
<glyph unicode="&#xe9;" horiz-adv-x="1034" d="M45 489q0 150 74 271t199 191.5t280 70.5h371v-178h-406q-96 0 -170 -45q-48 -29 -84 -80h660v-180h-740l-2 -45q-5 -102 47 -191q100 -172 355 -172h340v-172h-351q-364 0 -505 258q-68 125 -68 272zM487 1081l172 246h189l-184 -246h-177z" />
<glyph unicode="&#xea;" horiz-adv-x="1042" d="M45 489q0 150 74 271t199 191.5t280 70.5h371v-178h-406q-96 0 -170 -45q-48 -29 -84 -80h660v-180h-740l-2 -45q-5 -102 47 -191q100 -172 355 -172h340v-172h-351q-364 0 -505 258q-68 125 -68 272zM330 1085l264 252h174l219 -252h-215l-100 111l-103 -111h-239z" />
<glyph unicode="&#xeb;" horiz-adv-x="1042" d="M45 489q0 150 74 271t199 191.5t280 70.5h371v-178h-406q-96 0 -170 -45q-48 -29 -84 -80h660v-180h-740l-2 -45q-5 -102 47 -191q100 -172 355 -172h340v-172h-351q-364 0 -505 258q-68 125 -68 272zM463 1194q0 44 33 76.5t77 32.5q50 0 82.5 -29.5t32.5 -79.5 q0 -48 -33.5 -80.5t-81.5 -32.5q-42 0 -76 32t-34 81zM700 1194q0 44 35.5 76.5t79.5 32.5q45 0 78 -33t33 -76q0 -49 -31.5 -81t-79.5 -32q-47 0 -80 33q-35 29 -35 80z" />
<glyph unicode="&#xec;" horiz-adv-x="358" d="M31 1327h190l166 -246h-174zM129 -41v1038h176v-1038h-176z" />
<glyph unicode="&#xed;" horiz-adv-x="375" d="M45 1081l168 246h184l-178 -246h-174zM129 -41v1038h176v-1038h-176z" />
<glyph unicode="&#xee;" horiz-adv-x="362" d="M-125 1085l266 252h176l220 -252h-213l-103 111l-100 -111h-246zM129 -41v1038h176v-1038h-176z" />
<glyph unicode="&#xef;" horiz-adv-x="362" d="M0 1194q0 46 32.5 77.5t78.5 31.5q47 0 79.5 -29.5t32.5 -79.5q0 -48 -32 -80.5t-80 -32.5t-80 33q-31 25 -31 80zM129 -41v1038h176v-1038h-176zM236 1194q0 48 34 76q31 33 80 33q44 0 77.5 -32.5t33.5 -76.5q0 -49 -34 -81t-77 -32q-41 0 -77.5 30.5t-36.5 82.5z" />
<glyph unicode="&#xf0;" horiz-adv-x="1151" d="M31 518q0 238 131 408q143 186 381 186q92 0 154.5 -20.5t103.5 -59.5l-27 -65q-20 53 -82 127q-53 63 -106 110l-256 -127l-150 150l232 108q-60 37 -189 99q82 43 187 94q15 7 53 26q121 -51 188 -102l219 107l166 -140l-223 -108q142 -145 219.5 -325t77.5 -380 q0 -283 -118 -465q-140 -213 -408 -213q-253 0 -406 170q-147 164 -147 420zM299 518q0 -140 61 -237q72 -115 209 -115t211 119q60 97 60 235q0 140 -60 236q-74 118 -213 118q-134 0 -206 -116q-62 -98 -62 -240z" />
<glyph unicode="&#xf1;" horiz-adv-x="1049" d="M45 -41v621q0 125 69 233q68 105 181.5 164t236.5 59q120 0 225 -61t165 -166q55 -96 55 -205v-649h-174v629q0 153 -141 237q-66 39 -140 39q-87 0 -153 -41q-60 -38 -111 -114q-39 -72 -39 -156v-590h-174zM293 1077q0 112 42 161.5t103 49.5q37 0 74 -14l76 -29l30 -8 q-6 -2 -10 -2l10 2q5 12 5 51h159v-61q0 -121 -151 -154l-49 10l-35 11l-72 20h-14l4 4v-41h-172z" />
<glyph unicode="&#xf2;" horiz-adv-x="1206" d="M29 489q0 151 71.5 275.5t195.5 198t269 73.5q313 0 467 -270q72 -126 72 -277q0 -143 -72.5 -271.5t-195.5 -199.5t-271 -71q-143 0 -270 76q-266 159 -266 466zM205 489q0 -104 47 -188q19 -33 59 -76q104 -110 256 -110q202 0 312 186q51 86 51 191q0 98 -50 185 t-135 136q-81 47 -180 47q-204 0 -311 -182q-49 -83 -49 -189zM403 1327h187l172 -246h-176z" />
<glyph unicode="&#xf3;" horiz-adv-x="1188" d="M29 489q0 151 71.5 275.5t195.5 198t269 73.5q313 0 467 -270q72 -126 72 -277q0 -143 -72.5 -271.5t-195.5 -199.5t-271 -71q-143 0 -270 76q-266 159 -266 466zM205 489q0 -104 47 -188q19 -33 59 -76q104 -110 256 -110q202 0 312 186q51 86 51 191q0 98 -50 185 t-135 136q-81 47 -180 47q-204 0 -311 -182q-49 -83 -49 -189zM403 1077l172 246h187l-182 -246h-177z" />
<glyph unicode="&#xf4;" horiz-adv-x="1210" d="M29 489q0 151 71.5 275.5t195.5 198t269 73.5q313 0 467 -270q72 -126 72 -277q0 -143 -72.5 -271.5t-195.5 -199.5t-271 -71q-143 0 -270 76q-266 159 -266 466zM205 489q0 -104 47 -188q19 -33 59 -76q104 -110 256 -110q202 0 312 186q51 86 51 191q0 98 -50 185 t-135 136q-81 47 -180 47q-204 0 -311 -182q-49 -83 -49 -189zM244 1085l264 252h174l219 -252h-215l-100 111l-103 -111h-239z" />
<glyph unicode="&#xf5;" horiz-adv-x="1206" d="M29 489q0 151 71.5 275.5t195.5 198t269 73.5q313 0 467 -270q72 -126 72 -277q0 -143 -72.5 -271.5t-195.5 -199.5t-271 -71q-143 0 -270 76q-266 159 -266 466zM205 489q0 -104 47 -188q19 -33 59 -76q104 -110 256 -110q202 0 312 186q51 86 51 191q0 98 -50 185 t-135 136q-81 47 -180 47q-204 0 -311 -182q-49 -83 -49 -189zM362 1077q0 111 41 158q46 53 107 53q30 0 70 -14l88 -31l8 -6h8q4 2 8 2q21 0 21 -41q0 -39 -8 -39l-15 80l2 49h160v-61q0 -121 -150 -154l-55 10l-33 11l-69 20h-13l3 -37h-173z" />
<glyph unicode="&#xf6;" horiz-adv-x="1206" d="M29 489q0 151 71.5 275.5t195.5 198t269 73.5q313 0 467 -270q72 -126 72 -277q0 -143 -72.5 -271.5t-195.5 -199.5t-271 -71q-143 0 -270 76q-266 159 -266 466zM205 489q0 -104 47 -188q19 -33 59 -76q104 -110 256 -110q202 0 312 186q51 86 51 191q0 98 -50 185 t-135 136q-81 47 -180 47q-204 0 -311 -182q-49 -83 -49 -189zM367 1190q0 45 32.5 76.5t77.5 31.5t78 -30q37 -33 37 -78q0 -46 -34.5 -79.5t-80.5 -33.5q-47 0 -78.5 33t-31.5 80zM602 1190q0 45 35.5 76.5t81.5 31.5q45 0 78 -30q30 -33 30 -78q0 -52 -30.5 -82.5 t-77.5 -30.5q-46 0 -81.5 34t-35.5 79z" />
<glyph unicode="&#xf7;" horiz-adv-x="1139" d="M39 401v232h1118v-232h-1118zM418 98q0 74 52 128.5t126 54.5q79 0 130.5 -53.5t51.5 -127.5q0 -73 -53.5 -126.5t-126.5 -53.5q-74 0 -127 52.5t-53 125.5zM418 934q0 74 52.5 127t125.5 53q75 0 128.5 -52t53.5 -126t-53.5 -128t-126.5 -54t-126.5 53.5t-53.5 126.5z " />
<glyph unicode="&#xf8;" horiz-adv-x="1196" d="M70 494q0 152 71 272q75 126 197 197q126 73 268 73q72 0 146 -22l32 84l154 -72l-35 -82q242 -166 242 -450q0 -147 -73.5 -273t-201.5 -201q-124 -73 -268 -73q-65 0 -133 18l-33 -71l-145 73l26 66q-106 66 -172 176q-75 125 -75 285zM244 492q0 -85 38 -169 q40 -87 105 -137l299 672l-80 6q-85 6 -174 -49q-81 -50 -135 -139q-25 -41 -39 -89.5t-14 -94.5zM535 119l45 -10l26 4q100 0 182.5 49t131.5 136.5t49 190.5q0 96 -49 187q-34 64 -89 108z" />
<glyph unicode="&#xf9;" horiz-adv-x="1049" d="M84 408v620h172v-616q0 -176 152 -267q69 -41 151 -41q68 0 136 41.5t104 104.5q12 21 26 63q11 33 11 64v651h172v-645q0 -120 -65.5 -222t-166.5 -161q-105 -61 -215 -61q-120 0 -231 55q-118 58 -183 171q-63 108 -63 243zM395 1331h189l168 -246h-174z" />
<glyph unicode="&#xfa;" horiz-adv-x="1051" d="M84 408v620h172v-616q0 -176 152 -267q69 -41 151 -41q68 0 136 41.5t104 104.5q12 21 26 63q11 33 11 64v651h172v-645q0 -120 -65.5 -222t-166.5 -161q-105 -61 -215 -61q-120 0 -231 55q-118 58 -183 171q-63 108 -63 243zM397 1081l168 246h189l-183 -246h-174z" />
<glyph unicode="&#xfb;" horiz-adv-x="1042" d="M84 408v620h172v-616q0 -176 152 -267q69 -41 151 -41q68 0 136 41.5t104 104.5q12 21 26 63q11 33 11 64v651h172v-645q0 -120 -65.5 -222t-166.5 -161q-105 -61 -215 -61q-120 0 -231 55q-118 58 -183 171q-63 108 -63 243zM248 1085l264 252h174l219 -252h-215 l-98 111l-105 -111h-239z" />
<glyph unicode="&#xfc;" horiz-adv-x="1034" d="M84 408v620h172v-616q0 -176 152 -267q69 -41 151 -41q68 0 136 41.5t104 104.5q12 21 26 63q11 33 11 64v651h172v-645q0 -120 -65.5 -222t-166.5 -161q-105 -61 -215 -61q-120 0 -231 55q-118 58 -183 171q-63 108 -63 243zM350 1196q0 51 35 80q23 27 74 33 q48 0 83.5 -32.5t35.5 -80.5q0 -51 -37 -80q-31 -31 -80 -31q-43 0 -77 32t-34 79zM588 1196q0 48 33 80q25 24 79 33q49 0 81 -32t32 -81t-31 -80t-80 -31q-44 0 -79 31t-35 80z" />
<glyph unicode="&#xfd;" horiz-adv-x="979" d="M66 326v678h174v-703q0 -87 61 -135q43 -35 107 -35h391v870h174v-1159q0 -120 -60.5 -228.5t-162.5 -171.5q-105 -63 -226 -63q-185 0 -315 113q-63 55 -100 141q-39 91 -39 236h174q0 -64 18 -131q12 -45 29 -71q22 -34 53 -64q62 -60 172 -60q80 0 146 37 q62 35 98 109q39 80 39 172v98h-363q3 0 -59 2q-21 1 -66 6q-60 13 -106 45q-139 97 -139 314zM393 1081l168 246h189l-183 -246h-174z" />
<glyph unicode="&#xfe;" horiz-adv-x="1145" d="M78 -465v1976h262v-491l-68 -68q123 191 340 191q236 0 368 -176q120 -159 120 -402q0 -271 -123 -444q-137 -193 -387 -193q-77 0 -162 29q-102 35 -133 90h2q3 0 9.5 -3t33.5 -30v-479h-262zM332 487q0 -145 69 -233t185 -88q136 0 198 129q47 97 47 248 q0 356 -251 356q-248 0 -248 -412z" />
<glyph unicode="&#xff;" horiz-adv-x="1034" d="M66 326v678h174v-703q0 -87 61 -135q43 -35 107 -35h391v870h174v-1159q0 -120 -60.5 -228.5t-162.5 -171.5q-105 -63 -226 -63q-185 0 -315 113q-63 55 -100 141q-39 91 -39 236h174q0 -64 18 -131q12 -45 29 -71q22 -34 53 -64q62 -60 172 -60q80 0 146 37 q62 35 98 109q39 80 39 172v98h-363q3 0 -59 2q-21 1 -66 6q-60 13 -106 45q-139 97 -139 314zM326 1196q0 43 30 80q47 33 80 33q40 0 78 -33q31 -27 37 -78q0 -46 -34.5 -79.5t-80.5 -33.5q-47 0 -80 33q-30 25 -30 78zM561 1196q0 49 37 80q21 25 76 33q24 0 41 -6 q16 -9 39 -27q32 -43 32 -80q0 -47 -32 -78q-35 -33 -78 -33q-47 0 -78 31q-37 29 -37 80z" />
<glyph unicode="&#x152;" horiz-adv-x="2271" d="M57 748q0 197 108 377q105 175 277 279.5t383 104.5q164 0 287 -32h1106v-172h-967v-310h961v-184h-961v-696h961v-168h-1098q-119 -19 -194 -17l-125 4q-208 26 -375 131q-176 110 -269.5 286.5t-93.5 396.5zM227 725q0 -245 187 -432q85 -85 190 -135q121 -58 217 -58 q129 0 252 52v1138q-127 51 -248 51q-247 0 -419 -178q-89 -91 -132 -200q-19 -47 -34 -119q-13 -58 -13 -119z" />
<glyph unicode="&#x153;" horiz-adv-x="1952" d="M84 489q0 152 76 273q84 134 198 196q129 70 267 70q159 0 286 -84q93 -62 158 -158q13 19 41 52q15 18 45 49q156 137 381 137h369v-174h-361q-62 0 -139 -25q-70 -23 -117 -61l-43 -45h660v-180h-740l-4 -50q-1 -13 -1 -26q0 -136 109 -238t292 -102h344v-172h-357 q-221 0 -334 82q-18 8 -51 37q-20 18 -43 43q-13 13 -55 69q-32 -48 -80 -94q-155 -149 -362 -149q-144 0 -269.5 75.5t-197.5 201.5t-72 273zM256 494q-4 -86 55 -183q52 -86 137.5 -146.5t157.5 -60.5l6 2l-8 -16q-12 -18 -20 -18q-11 0 -11 37q144 0 229 52.5t134 141.5 q47 86 47 193q0 91 -53 182q-45 78 -131 129q-82 49 -176 49q-95 0 -174 -47q-184 -109 -193 -315z" />
<glyph unicode="&#x178;" horiz-adv-x="1180" d="M4 1481h207l381 -477l385 481h209l-512 -641v-885h-168v885zM393 1669q0 47 31 80t78 33q51 0 78 -33q36 -31 36 -80q0 -45 -37 -79t-77 -34q-49 0 -78 37q-31 29 -31 76zM629 1669q0 49 37 80q28 33 77 33q97 0 111 -111q0 -48 -32 -81.5t-79 -33.5q-51 0 -77 33 q-37 31 -37 80z" />
<glyph unicode="&#x2c6;" horiz-adv-x="944" d="M336 926l262 256h174l215 -256h-211l-100 114l-103 -114h-237z" />
<glyph unicode="&#x2dc;" horiz-adv-x="920" d="M420 1153q0 107 41 156q44 53 104 53q30 0 72 -14l102 -35h-2q-2 0 -4 2q12 0 14.5 4t2.5 18v25h161v-62q0 -120 -151 -151q-19 0 -86 20l-70 21h-12l35 -37h-207z" />
<glyph unicode="&#x2000;" horiz-adv-x="909" />
<glyph unicode="&#x2001;" horiz-adv-x="1819" />
<glyph unicode="&#x2002;" horiz-adv-x="909" />
<glyph unicode="&#x2003;" horiz-adv-x="1819" />
<glyph unicode="&#x2004;" horiz-adv-x="606" />
<glyph unicode="&#x2005;" horiz-adv-x="454" />
<glyph unicode="&#x2006;" horiz-adv-x="303" />
<glyph unicode="&#x2007;" horiz-adv-x="303" />
<glyph unicode="&#x2008;" horiz-adv-x="227" />
<glyph unicode="&#x2009;" horiz-adv-x="363" />
<glyph unicode="&#x200a;" horiz-adv-x="101" />
<glyph unicode="&#x2010;" horiz-adv-x="606" d="M61 633v168h482v-168h-482z" />
<glyph unicode="&#x2011;" horiz-adv-x="606" d="M61 633v168h482v-168h-482z" />
<glyph unicode="&#x2012;" horiz-adv-x="606" d="M61 633v168h482v-168h-482z" />
<glyph unicode="&#x2013;" horiz-adv-x="903" d="M72 621v178h788v-178h-788z" />
<glyph unicode="&#x2014;" horiz-adv-x="1640" d="M72 625v182h1505v-182h-1505z" />
<glyph unicode="&#x2018;" horiz-adv-x="350" d="M57 946v293q0 154 119 221q41 23 117 43v-157q-70 -35 -70 -89v-49h70v-262h-236z" />
<glyph unicode="&#x2019;" horiz-adv-x="346" d="M61 930v155q25 11 35 17q33 25 33 65v54h-68v264h232v-291q0 -92 -49 -160q-53 -73 -183 -104z" />
<glyph unicode="&#x201a;" horiz-adv-x="455" d="M68 -41v299h294v-242q0 -159 -69 -247.5t-225 -124.5v182q67 10 92 51q16 27 16 82h-108z" />
<glyph unicode="&#x201c;" horiz-adv-x="651" d="M66 946v293q0 192 231 268v-161q-47 -21 -55 -43q-15 -25 -15 -46v-49h70v-262h-231zM367 942v293q0 92 47 162q45 67 190 102v-149q-50 -32 -59.5 -50.5t-9.5 -46.5v-49h65v-262h-233z" />
<glyph unicode="&#x201d;" horiz-adv-x="664" d="M70 936v149q63 39 63 91v51h-63v262h231v-293q0 -92 -45 -156q-23 -33 -65.5 -58.5t-120.5 -45.5zM371 936v149q69 42 69 93v49h-69v262h233v-293q0 -89 -47 -156q-49 -70 -186 -104z" />
<glyph unicode="&#x201e;" horiz-adv-x="682" d="M12 -41v299h295v-242q0 -159 -69.5 -247.5t-225.5 -124.5v182q67 10 92 51q17 28 17 82h-109zM350 -41v299h295v-242q0 -159 -69.5 -247.5t-225.5 -124.5v182q67 10 92 51q17 28 17 82h-109z" />
<glyph unicode="&#x2022;" horiz-adv-x="717" d="M-4 735q0 154 104.5 259.5t257.5 105.5t259 -106t106 -259t-105.5 -257.5t-259.5 -104.5q-153 0 -257.5 104.5t-104.5 257.5z" />
<glyph unicode="&#x2026;" horiz-adv-x="954" d="M61 43q0 35 25.5 61.5t60.5 26.5q37 0 63 -25.5t26 -62.5q0 -40 -28 -64t-61 -24q-34 0 -60 27t-26 61zM395 43q0 39 25 61q24 27 61 27q35 0 61.5 -26.5t26.5 -61.5q0 -37 -25.5 -62.5t-62.5 -25.5t-61 27q-25 22 -25 61zM731 43q0 35 25 59q18 29 63 29q84 0 84 -88 q0 -38 -20 -59q-28 -29 -64 -29q-88 0 -88 88z" />
<glyph unicode="&#x202f;" horiz-adv-x="363" />
<glyph unicode="&#x2039;" horiz-adv-x="682" d="M139 453v229l404 315v-284l-189 -146l189 -145v-285z" />
<glyph unicode="&#x205f;" horiz-adv-x="454" />
<glyph unicode="&#x2122;" horiz-adv-x="1430" d="M61 1346v145h598v-145h-227v-662h-147v662h-224zM631 684v801h178l197 -551l202 551h172v-801h-151v451l-166 -451h-121l-160 446v-446h-151z" />
<glyph unicode="&#x25fc;" horiz-adv-x="1030" d="M0 0v1030h1030v-1030h-1030z" />
</font>
</defs>
</svg>
