<svg id="Layer_1" data-name="Layer 1" xmlns="http://www.w3.org/2000/svg" viewBox="0 0 354.32 581.22"><title>coffeeprog-inner</title><path d="M308.23,687.19a157.34,157.34,0,0,1-70.76-13.1c-12.9-5.67-25.44-12.41-34.61-23.68-3.6-4.41-3.09-10.24-4-15.49-2.05-12.22-4-24.47-5.57-36.76-1.59-12.57-3.8-25-5.49-37.61-1.25-9.29-2.86-18.58-4.35-27.87-2.32-14.44-4.45-28.91-6.63-43.38-2.14-14.18-4.42-28.35-6.31-42.57-1.13-8.46-2.51-16.9-3.73-25.34-1.31-9.12-2.84-18.25-4.2-27.38-1.91-12.85-4-25.69-5.77-38.56-1.6-11.43-3.57-22.83-5.25-34.26-2.13-14.51-4.5-29-6.74-43.49-1.58-10.25-3.1-20.51-4.71-30.76-0.19-1.21-.46-2.44.52-3.26s2.29-.08,3.2.54c19.28,12.92,40.93,20.14,63.11,25.86A315.12,315.12,0,0,0,250.78,278c8.64,1,17.39,1,26,2.88,4.12,0.88,8.63-.25,12.93,0,13.09,0.72,26.2.23,39.26-.16a370.74,370.74,0,0,0,48.73-4.56c16.18-2.64,32.25-5.53,48-10.13,14.33-4.19,28.52-8.65,41.18-16.87,1.13-.74,2.27-1.93,3.54-1s0.86,2.45.69,3.76c-2.94,22.44-6,44.87-8.83,67.33-2.2,17.55-3.73,35.2-6.21,52.71-1.69,11.9-3.1,23.84-4.76,35.74-1.29,9.31-2.4,18.72-3.27,28.13-1.34,14.53-3.76,29-5.6,43.46-1.52,12-2.79,24-4.28,35.95s-3.17,23.92-4.67,35.88-2.84,24-4.32,36c-1.52,12.28-3.15,24.55-4.69,36.83-0.83,6.64-1.57,13.3-2.31,20-0.67,6-5.67,8.89-9.64,12-14.81,11.78-31.76,19.54-49.93,24.56a245.36,245.36,0,0,1-30,5.86C324.43,687.45,316.33,686.86,308.23,687.19Z" transform="translate(-129.95 -106.12)"/><path d="M466.15,158.93a4.64,4.64,0,0,1,2,3.75c0.69,7.69,5.32,12.92,10.89,17.5,4.13,3.39,4.52,8.07,5.12,12.81,0.76,6-3.44,8.76-7.51,11.48-16.79,11.2-35.51,17.74-54.9,22.65-11.64,2.95-23.6,3.92-35.36,6-27.5,4.85-55.18,3.91-82.84,4-13.22.06-26.41-1.54-39.58-2.85-13-1.28-25.84-2.88-38.67-5.1a396.56,396.56,0,0,1-54.21-13.12c-13.48-4.34-26.25-9.92-37.5-18.69-4.41-3.44-4.06-14.15.76-18.52a4.25,4.25,0,0,1,.76-0.65c6.93-3.73,11.7-9,12.2-17.27a12.38,12.38,0,0,1,1.21-3.25c4.06,2,6.32,5.65,9.59,8.16C175,178.81,194.69,185.06,215,189.71c16.1,3.69,32.54,5.26,48.92,7.29,23.36,2.89,46.86,2.68,70.1,1.73,31.8-1.3,63.61-5,94-15.86C444.17,177.11,454.7,171.87,466.15,158.93Z" transform="translate(-129.95 -106.12)"/><path d="M483.19,206.37c-0.44,7.63.1,14.6-1.48,21.06-1.7,7-7.91,11.27-13.6,15.27-14.44,10.13-30.89,15.66-47.7,20.31-19.67,5.44-39.76,8.71-60,11-14.94,1.68-30.07,1.43-45,2.52-13,.95-25.87-0.47-38.75-0.69-11-.19-22.18-2.25-33.25-3.58a299.61,299.61,0,0,1-54.58-12.15c-19.35-6.1-37.41-14.87-53.62-27.23-2.24-1.71-2.91-4.31-3.1-6.59-0.66-7.56-1.12-15.14-2.1-22.68-0.39-3,2.07-2,3.29-1,8.3,6.91,18.07,11,28,14.82,17.19,6.68,35,11,53.08,14.37,12,2.26,23.93,4.52,36,6,6.86,0.83,13.77,1.66,20.68,2.1,8.89,0.56,17.77,1.31,26.65,1.77,11.62,0.61,23.3,0,34.94.29,11.44,0.26,22.74-1.24,34.1-2A341.41,341.41,0,0,0,424.38,231c18.45-4.47,36.25-10.76,52.29-21.29C478.45,208.59,480.45,207.78,483.19,206.37Z" transform="translate(-129.95 -106.12)"/><path d="M183.13,161.25c-4.37-1.33-7.75-4.37-11.39-6.89-2.11-1.46-4-1.55-6.43-1.39a5.81,5.81,0,0,0-5,3.6c-1,2.07,1.44,3,2.49,4.4,0.54,0.71,2,.78,1.45,2.85a23.14,23.14,0,0,1-13.74-13.93c-1.69-5,2.41-9.44,6.42-12.53,12-9.26,26.08-14.18,40.45-18.41,14.79-4.35,30-6.32,45.17-8.84,8.41-1.4,17.16-.85,25.54-2.37,12-2.18,24.2-.93,36.22-1.4a294.08,294.08,0,0,1,39.19,1.21c10.85,1,21.74,1.75,32.53,3.33,23.48,3.44,46.76,7.73,68.43,18.07a57.45,57.45,0,0,1,17.29,13.16c3.93,4.24,2.52,12.17-2.92,17.92-7.86,8.31-17.74,13.21-28.22,17.19-19.83,7.51-40.58,11.29-61.45,13.76-17.9,2.12-35.95,4-54.06,3.19-10.15-.44-20.36.89-30.4-0.07-15.26-1.45-30.59-2.19-45.8-4.66-16.91-2.74-33.54-6.2-49.69-11.93-1.86-.66-3.84-1-5.13-2.74,0.49-1.51,2-1,2.9-1.52,4.32-2.27,4.56-4.26.86-7.68a8.23,8.23,0,0,1-1.09-1.64c1.77-.1,3.18.84,4.67,1.58a115.67,115.67,0,0,0,23.36,8.24A302.64,302.64,0,0,0,256.19,181c15.79,1.67,31.55,3.48,47.45,2.77,13.44-.6,26.85.71,40.36-0.68,8.95-.92,18.16-1,27-2.28,16.29-2.37,32.71-4.76,48.35-10.35,9.34-3.34,18.95-6.35,24.86-15.36,2.27-3.46,2.22-6.65,0-10.14-4.77-7.55-12.46-10.93-20.24-13.69a229,229,0,0,0-49.55-11.31c-18.25-2.18-36.44-4.12-54.84-3.7-4.66.11-9.35,0.31-14,0-15.47-1.09-30.86.66-46.16,2a247.4,247.4,0,0,0-42.76,7.41c-11,3-22.29,5.82-31.72,12.74-7.66,5.62-11.2,12.38-3.11,20.77A10.76,10.76,0,0,1,183.13,161.25Z" transform="translate(-129.95 -106.12)"/><path d="M217.84,127.42c12.09-3.31,24.47-4.92,36.86-6.69,26.91-3.84,54-3.08,81-2.68,15.21,0.23,30.47,2.15,45.65,4.57A269.56,269.56,0,0,1,421.26,132c7.28,2.33,14.26,5.42,19.67,11.24,4.55,4.89,4.69,9.09-.24,13.79-5.09,4.86-11.28,8-17.83,10.39-17.81,6.44-36.31,9.75-55.07,11.78-8.17.89-16.41,1.25-24.54,2-6.62.64-13.22,0.35-19.77,1-10.85,1.13-19.8-3.06-28.67-8.53-11.68-7.2-23.67-13.89-35.55-20.76q-19.72-11.41-39.48-22.75A3.12,3.12,0,0,1,217.84,127.42Z" transform="translate(-129.95 -106.12)"/><path d="M303.68,181.45c-7.48.18-14.77,1.6-22.25-.13-4.87-1.13-10.13-.91-15.18-1.2a284.05,284.05,0,0,1-52.46-8.53c-4.65-1.17-9.19-2.81-13.78-4.23-2.86-.89-3.56-2.32-1.94-5.15,5.09-8.9,10-17.91,14.92-26.91,2-3.59,4.09-5.07,8.28-2.56,18.7,11.18,37.72,21.8,56.45,32.95C286.36,170.83,295.14,175.74,303.68,181.45Z" transform="translate(-129.95 -106.12)"/><path d="M210.88,129c2.16,0.16,3.49,1,2.28,3.16q-8.45,15.14-17.07,30.18a2.77,2.77,0,0,1-3.82,1.3,28.6,28.6,0,0,1-2.7-1.22c-4.8-2.71-9.85-5.51-10.63-11.56-0.83-6.4,4.45-9.17,8.75-12.14C194.74,133.81,203,131.57,210.88,129Z" transform="translate(-129.95 -106.12)"/></svg>